<mxfile host="app.diagrams.net" agent="Mozilla/5.0 (Windows NT 10.0; Win64; x64) AppleWebKit/537.36 (KHTML, like Gecko) Chrome/133.0.0.0 Safari/537.36 Edg/133.0.0.0" version="26.0.16">
  <diagram name="Página-1" id="K_f2lNsKRhbUwVWgRhzm">
    <mxGraphModel dx="827" dy="1687" grid="1" gridSize="10" guides="1" tooltips="1" connect="1" arrows="1" fold="1" page="1" pageScale="1" pageWidth="1600" pageHeight="1200" math="0" shadow="0">
      <root>
        <mxCell id="0" />
        <mxCell id="1" parent="0" />
        <mxCell id="SMkT5xkK0ZqoHVYh8Ymu-1" value="clientes" style="swimlane;fontStyle=0;childLayout=stackLayout;horizontal=1;startSize=26;fillColor=#FFE599;horizontalStack=0;resizeParent=1;resizeParentMax=0;resizeLast=0;collapsible=1;marginBottom=0;whiteSpace=wrap;html=1;strokeColor=#d79b00;" vertex="1" parent="1">
          <mxGeometry x="40" y="140" width="160" height="120" as="geometry" />
        </mxCell>
        <mxCell id="SMkT5xkK0ZqoHVYh8Ymu-2" value="&lt;font style=&quot;color: rgb(0, 0, 0);&quot;&gt;id_cliente&lt;/font&gt;" style="text;strokeColor=#82b366;fillColor=#d5e8d4;align=left;verticalAlign=top;spacingLeft=4;spacingRight=4;overflow=hidden;rotatable=0;points=[[0,0.5],[1,0.5]];portConstraint=eastwest;whiteSpace=wrap;html=1;shadow=0;glass=0;" vertex="1" parent="SMkT5xkK0ZqoHVYh8Ymu-1">
          <mxGeometry y="26" width="160" height="26" as="geometry" />
        </mxCell>
        <mxCell id="SMkT5xkK0ZqoHVYh8Ymu-3" value="nome" style="text;strokeColor=#d6b656;fillColor=#fff2cc;align=left;verticalAlign=top;spacingLeft=4;spacingRight=4;overflow=hidden;rotatable=0;points=[[0,0.5],[1,0.5]];portConstraint=eastwest;whiteSpace=wrap;html=1;" vertex="1" parent="SMkT5xkK0ZqoHVYh8Ymu-1">
          <mxGeometry y="52" width="160" height="26" as="geometry" />
        </mxCell>
        <mxCell id="SMkT5xkK0ZqoHVYh8Ymu-4" value="email" style="text;strokeColor=#d6b656;fillColor=#fff2cc;align=left;verticalAlign=top;spacingLeft=4;spacingRight=4;overflow=hidden;rotatable=0;points=[[0,0.5],[1,0.5]];portConstraint=eastwest;whiteSpace=wrap;html=1;" vertex="1" parent="SMkT5xkK0ZqoHVYh8Ymu-1">
          <mxGeometry y="78" width="160" height="42" as="geometry" />
        </mxCell>
        <mxCell id="SMkT5xkK0ZqoHVYh8Ymu-21" style="edgeStyle=orthogonalEdgeStyle;rounded=0;orthogonalLoop=1;jettySize=auto;html=1;exitX=1;exitY=0.5;exitDx=0;exitDy=0;entryX=0;entryY=0.5;entryDx=0;entryDy=0;" edge="1" parent="1" source="SMkT5xkK0ZqoHVYh8Ymu-5" target="SMkT5xkK0ZqoHVYh8Ymu-10">
          <mxGeometry relative="1" as="geometry" />
        </mxCell>
        <mxCell id="SMkT5xkK0ZqoHVYh8Ymu-5" value="pedidos" style="swimlane;fontStyle=0;childLayout=stackLayout;horizontal=1;startSize=20;fillColor=#FFE599;horizontalStack=0;resizeParent=1;resizeParentMax=0;resizeLast=0;collapsible=1;marginBottom=0;whiteSpace=wrap;html=1;swimlaneLine=1;glass=0;shadow=0;strokeColor=#d79b00;" vertex="1" parent="1">
          <mxGeometry x="360" y="80" width="160" height="128" as="geometry">
            <mxRectangle x="360" y="80" width="80" height="30" as="alternateBounds" />
          </mxGeometry>
        </mxCell>
        <mxCell id="SMkT5xkK0ZqoHVYh8Ymu-6" value="id_pedido" style="text;strokeColor=#d6b656;fillColor=#fff2cc;align=left;verticalAlign=top;spacingLeft=4;spacingRight=4;overflow=hidden;rotatable=0;points=[[0,0.5],[1,0.5]];portConstraint=eastwest;whiteSpace=wrap;html=1;" vertex="1" parent="SMkT5xkK0ZqoHVYh8Ymu-5">
          <mxGeometry y="20" width="160" height="26" as="geometry" />
        </mxCell>
        <mxCell id="SMkT5xkK0ZqoHVYh8Ymu-7" value="&lt;font style=&quot;color: rgb(0, 0, 0);&quot;&gt;id_produto&lt;/font&gt;" style="text;strokeColor=#6c8ebf;fillColor=#dae8fc;align=left;verticalAlign=top;spacingLeft=4;spacingRight=4;overflow=hidden;rotatable=0;points=[[0,0.5],[1,0.5]];portConstraint=eastwest;whiteSpace=wrap;html=1;" vertex="1" parent="SMkT5xkK0ZqoHVYh8Ymu-5">
          <mxGeometry y="46" width="160" height="26" as="geometry" />
        </mxCell>
        <mxCell id="SMkT5xkK0ZqoHVYh8Ymu-8" value="&lt;font style=&quot;color: rgb(0, 0, 0);&quot;&gt;id_cliente&lt;/font&gt;" style="text;strokeColor=#82b366;fillColor=#d5e8d4;align=left;verticalAlign=top;spacingLeft=4;spacingRight=4;overflow=hidden;rotatable=0;points=[[0,0.5],[1,0.5]];portConstraint=eastwest;whiteSpace=wrap;html=1;shadow=0;glass=0;" vertex="1" parent="SMkT5xkK0ZqoHVYh8Ymu-5">
          <mxGeometry y="72" width="160" height="28" as="geometry" />
        </mxCell>
        <mxCell id="SMkT5xkK0ZqoHVYh8Ymu-15" value="data" style="text;strokeColor=#d6b656;fillColor=#fff2cc;align=left;verticalAlign=top;spacingLeft=4;spacingRight=4;overflow=hidden;rotatable=0;points=[[0,0.5],[1,0.5]];portConstraint=eastwest;whiteSpace=wrap;html=1;" vertex="1" parent="SMkT5xkK0ZqoHVYh8Ymu-5">
          <mxGeometry y="100" width="160" height="28" as="geometry" />
        </mxCell>
        <mxCell id="SMkT5xkK0ZqoHVYh8Ymu-9" value="produtos" style="swimlane;fontStyle=0;childLayout=stackLayout;horizontal=1;startSize=26;fillColor=#FFE599;horizontalStack=0;resizeParent=1;resizeParentMax=0;resizeLast=0;collapsible=1;marginBottom=0;whiteSpace=wrap;html=1;strokeColor=#d79b00;" vertex="1" parent="1">
          <mxGeometry x="680" y="180" width="160" height="130" as="geometry" />
        </mxCell>
        <mxCell id="SMkT5xkK0ZqoHVYh8Ymu-10" value="&lt;font style=&quot;color: rgb(0, 0, 0);&quot;&gt;id_produto&lt;/font&gt;" style="text;strokeColor=#6c8ebf;fillColor=#dae8fc;align=left;verticalAlign=top;spacingLeft=4;spacingRight=4;overflow=hidden;rotatable=0;points=[[0,0.5],[1,0.5]];portConstraint=eastwest;whiteSpace=wrap;html=1;" vertex="1" parent="SMkT5xkK0ZqoHVYh8Ymu-9">
          <mxGeometry y="26" width="160" height="26" as="geometry" />
        </mxCell>
        <mxCell id="SMkT5xkK0ZqoHVYh8Ymu-11" value="marca" style="text;strokeColor=#d6b656;fillColor=#fff2cc;align=left;verticalAlign=top;spacingLeft=4;spacingRight=4;overflow=hidden;rotatable=0;points=[[0,0.5],[1,0.5]];portConstraint=eastwest;whiteSpace=wrap;html=1;" vertex="1" parent="SMkT5xkK0ZqoHVYh8Ymu-9">
          <mxGeometry y="52" width="160" height="26" as="geometry" />
        </mxCell>
        <mxCell id="SMkT5xkK0ZqoHVYh8Ymu-12" value="valor" style="text;strokeColor=#d6b656;fillColor=#fff2cc;align=left;verticalAlign=top;spacingLeft=4;spacingRight=4;overflow=hidden;rotatable=0;points=[[0,0.5],[1,0.5]];portConstraint=eastwest;whiteSpace=wrap;html=1;" vertex="1" parent="SMkT5xkK0ZqoHVYh8Ymu-9">
          <mxGeometry y="78" width="160" height="26" as="geometry" />
        </mxCell>
        <mxCell id="SMkT5xkK0ZqoHVYh8Ymu-16" value="descrição" style="text;strokeColor=#d6b656;fillColor=#fff2cc;align=left;verticalAlign=top;spacingLeft=4;spacingRight=4;overflow=hidden;rotatable=0;points=[[0,0.5],[1,0.5]];portConstraint=eastwest;whiteSpace=wrap;html=1;" vertex="1" parent="SMkT5xkK0ZqoHVYh8Ymu-9">
          <mxGeometry y="104" width="160" height="26" as="geometry" />
        </mxCell>
        <mxCell id="SMkT5xkK0ZqoHVYh8Ymu-20" style="edgeStyle=orthogonalEdgeStyle;rounded=0;orthogonalLoop=1;jettySize=auto;html=1;entryX=0;entryY=0.5;entryDx=0;entryDy=0;exitX=1;exitY=0.5;exitDx=0;exitDy=0;" edge="1" parent="1" source="SMkT5xkK0ZqoHVYh8Ymu-2" target="SMkT5xkK0ZqoHVYh8Ymu-8">
          <mxGeometry relative="1" as="geometry">
            <mxPoint x="270" y="170" as="sourcePoint" />
          </mxGeometry>
        </mxCell>
        <mxCell id="SMkT5xkK0ZqoHVYh8Ymu-22" value="&lt;h1 style=&quot;margin-top: 0px;&quot;&gt;Projeto Loja&lt;/h1&gt;&lt;div&gt;Diagrama UML&lt;/div&gt;&lt;div&gt;&lt;br&gt;&lt;/div&gt;&lt;div&gt;Desenvolvido por: Henrique Fitipaldi Marques Pinheiro&lt;/div&gt;" style="text;html=1;whiteSpace=wrap;overflow=hidden;rounded=0;strokeColor=#9673a6;fillColor=#e1d5e7;" vertex="1" parent="1">
          <mxGeometry x="50" y="-10" width="180" height="120" as="geometry" />
        </mxCell>
      </root>
    </mxGraphModel>
  </diagram>
</mxfile>
